HIERARCHY
ROOT Hips
{
    OFFSET 0.000000 0.000000 0.000000
    CHANNELS 6 Xposition Yposition Zposition Zrotation Xrotation Yrotation
    JOINT Spine
    {
        OFFSET -0.000000 7.236184 0.000000
        CHANNELS 3 Zrotation Xrotation Yrotation
        JOINT Spine1
        {
            OFFSET -0.000000 20.420147 0.000000
            CHANNELS 3 Zrotation Xrotation Yrotation
            JOINT Neck
            {
                OFFSET -0.000000 20.336288 1.848754
                CHANNELS 3 Zrotation Xrotation Yrotation
                JOINT Head
                {
                    OFFSET -0.000000 12.354461 -1.764923
                    CHANNELS 3 Zrotation Xrotation Yrotation
                    End Site
                    {
                        OFFSET -0.000000 22.061537 0.000000
                    }
                }
            }
            JOINT LeftShoulder
            {
                OFFSET 3.573296 18.396038 -0.314103
                CHANNELS 3 Zrotation Xrotation Yrotation
                JOINT LeftArm
                {
                    OFFSET 10.880760 0.000000 0.000000
                    CHANNELS 3 Zrotation Xrotation Yrotation
                    JOINT LeftForeArm
                    {
                        OFFSET 27.185530 0.000000 0.000000
                        CHANNELS 3 Zrotation Xrotation Yrotation
                        JOINT LeftHand
                        {
                            OFFSET 27.825975 0.000000 0.000000
                            CHANNELS 3 Zrotation Xrotation Yrotation
                            End Site
                            {
                                OFFSET 13.236923 0.000000 0.000000
                            }
                        }
                    }
                }
            }
            JOINT RightShoulder
            {
                OFFSET -3.474926 18.396038 -0.314103
                CHANNELS 3 Zrotation Xrotation Yrotation
                JOINT RightArm
                {
                    OFFSET -10.880760 0.000000 0.000000
                    CHANNELS 3 Zrotation Xrotation Yrotation
                    JOINT RightForeArm
                    {
                        OFFSET -27.185530 0.000000 0.000000
                        CHANNELS 3 Zrotation Xrotation Yrotation
                        JOINT RightHand
                        {
                            OFFSET -27.825975 0.000000 0.000000
                            CHANNELS 3 Zrotation Xrotation Yrotation
                            End Site
                            {
                                OFFSET -13.236923 0.000000 0.000000
                            }
                        }
                    }
                }
            }
        }
    }
    JOINT LeftUpLeg
    {
        OFFSET 8.824615 0.000000 0.000000
        CHANNELS 3 Zrotation Xrotation Yrotation
        JOINT LeftLeg
        {
            OFFSET -0.000000 -35.111282 0.000000
            CHANNELS 3 Zrotation Xrotation Yrotation
            JOINT LeftFoot
            {
                OFFSET -0.000000 -42.324711 0.000000
                CHANNELS 3 Zrotation Xrotation Yrotation
                JOINT LeftToeBase
                {
                    OFFSET -0.000000 -5.735999 13.236923
                    CHANNELS 3 Zrotation Xrotation Yrotation
                    End Site
                    {
                        OFFSET -0.000000 0.000000 3.529846
                    }
                }
            }
        }
    }
    JOINT RightUpLeg
    {
        OFFSET -8.824615 0.000000 0.000000
        CHANNELS 3 Zrotation Xrotation Yrotation
        JOINT RightLeg
        {
            OFFSET -0.000000 -35.111282 0.000000
            CHANNELS 3 Zrotation Xrotation Yrotation
            JOINT RightFoot
            {
                OFFSET -0.000000 -42.324711 0.000000
                CHANNELS 3 Zrotation Xrotation Yrotation
                JOINT RightToeBase
                {
                    OFFSET -0.000000 -5.735999 13.236923
                    CHANNELS 3 Zrotation Xrotation Yrotation
                    End Site
                    {
                        OFFSET -0.000000 0.000000 3.529846
                    }
                }
            }
        }
    }
}
MOTION
Frames:    12
Frame Time:    0.008333
1.900376    77.764091    110.925697    -0.301843    -9.406254    177.732697    -1.088804    -5.075380    0.079171    2.692214    5.641042    -0.004792    3.103211    6.385370    -2.304355    3.661830    -5.632957    -1.983207    1.323784    17.640766    -0.595906    -50.312958    40.532406    -28.791298    -0.309081    -4.738354    -11.058660    16.448763    -4.327833    3.054961    6.765135    19.588629    -8.765024    48.162651    41.111328    22.896942    -1.339382    -7.784021    17.270784    -12.086850    -6.971859    -5.810168    19.590679    -23.882338    14.415277    -2.784985    35.127831    5.760560    -17.068556    -12.495432    -19.925850    2.071189    -1.229358    -2.300928    -29.761667    -24.838465    -9.225989    5.774316    34.187622    -0.056425    10.067185    2.607733    -11.874164    -0.116427    -5.548334    0.126942
2.494411    77.627052    110.861313    -0.341796    -9.419012    177.732300    -1.201556    -5.138819    0.111876    2.591740    5.700434    0.037122    2.995781    6.309439    -2.298219    3.691630    -5.605205    -1.964249    1.291260    17.674841    -0.500407    -50.526878    40.579681    -27.982744    -0.223253    -4.995274    -11.296408    16.757530    -4.554899    3.148909    6.744183    19.615282    -8.772931    48.160126    41.261620    22.975740    -1.315878    -7.732680    17.331171    -11.924751    -6.937232    -5.755078    20.003574    -23.865870    14.587055    -2.647356    35.199337    5.701274    -17.426226    -12.307510    -20.067909    2.019295    -1.209795    -2.243199    -29.609329    -24.395550    -8.663260    5.515957    33.300125    0.223461    10.352036    2.233639    -11.566680    -0.150961    -5.478930    0.164575
3.112084    77.491020    110.797104    -0.381254    -9.428583    177.727875    -1.315527    -5.202609    0.144614    2.489918    5.759464    0.079007    2.884305    6.241133    -2.283527    3.709380    -5.566765    -1.938269    1.258317    17.701828    -0.401527    -50.763218    40.595680    -27.161459    -0.129120    -5.278506    -11.541369    17.088881    -4.806479    3.239349    6.719069    19.639908    -8.776114    48.155033    41.425659    23.058472    -1.298661    -7.679226    17.400978    -11.755509    -6.899887    -5.697719    20.426174    -23.833366    14.733334    -2.516223    35.245495    5.641531    -17.782909    -12.095128    -20.178091    1.963710    -1.203552    -2.181429    -29.403233    -23.980837    -8.073869    5.284210    32.504063    0.478203    10.686484    1.785614    -11.283975    -0.185955    -5.398771    0.202700
3.759678    77.355865    110.733223    -0.419203    -9.436044    177.718674    -1.430514    -5.266821    0.176479    2.386297    5.817054    0.121262    2.766999    6.180357    -2.259191    3.715333    -5.517164    -1.904030    1.223849    17.722893    -0.296619    -51.027702    40.574486    -26.321102    -0.028306    -5.587450    -11.790145    17.440321    -5.082523    3.323900    6.688881    19.662476    -8.773434    48.147869    41.603683    23.145494    -1.289612    -7.624181    17.482769    -11.579597    -6.860040    -5.637685    20.865509    -23.786285    14.851274    -2.396584    35.268284    5.586058    -18.137104    -11.854059    -20.253702    1.903014    -1.215148    -2.114051    -29.142534    -23.596512    -7.459628    5.077881    31.802067    0.715142    11.074663    1.244193    -11.035404    -0.221037    -5.304967    0.240905
4.427099    77.224953    110.671402    -0.454136    -9.441879    177.704483    -1.543380    -5.329763    0.207045    2.282478    5.870816    0.162098    2.644911    6.128512    -2.225069    3.710336    -5.457140    -1.861188    1.188195    17.738432    -0.185875    -51.318951    40.511501    -25.477293    0.075220    -5.913392    -12.032976    17.801907    -5.375577    3.398590    6.653384    19.682524    -8.763782    48.140152    41.788498    23.234104    -1.288599    -7.568687    17.577484    -11.403651    -6.818392    -5.575425    21.316032    -23.726496    14.936006    -2.293990    35.267590    5.544125    -18.479357    -11.582792    -20.295315    1.837379    -1.248581    -2.041266    -28.833670    -23.253836    -6.840765    4.900973    31.214285    0.937483    11.507473    0.599834    -10.836250    -0.255905    -5.196209    0.278860
5.122233    77.097694    110.611465    -0.485299    -9.446527    177.685410    -1.654169    -5.391190    0.236146    2.177735    5.919965    0.201406    2.515875    6.085563    -2.180534    3.694965    -5.386741    -1.808841    1.150206    17.749289    -0.066977    -51.641483    40.402912    -24.622931    0.180090    -6.255933    -12.267008    18.175812    -5.685446    3.463329    6.611348    19.700823    -8.745600    48.133877    41.974953    23.323544    -1.293559    -7.511570    17.688297    -11.230868    -6.774005    -5.509782    21.783997    -23.654606    14.988998    -2.206740    35.244068    5.522169    -18.811075    -11.271234    -20.309299    1.765355    -1.308332    -1.961469    -28.476597    -22.952024    -6.222951    4.751287    30.738630    1.156189    11.980644    -0.170029    -10.691869    -0.292928    -5.065306    0.319141
5.831546    76.977448    110.555222    -0.510778    -9.449942    177.662628    -1.759465    -5.448935    0.262316    2.074673    5.963078    0.238134    2.381447    6.051960    -2.126569    3.671154    -5.308098    -1.747692    1.109971    17.755671    0.059433    -51.988373    40.249577    -23.779259    0.282517    -6.603846    -12.482241    18.553699    -6.001805    3.517451    6.562567    19.717133    -8.718122    48.131649    42.152332    23.409853    -1.302295    -7.454393    17.815512    -11.070118    -6.728220    -5.441945    22.261177    -23.573874    15.011019    -2.134390    35.199749    5.524880    -19.122713    -10.918297    -20.301146    1.687945    -1.396253    -1.875767    -28.082224    -22.699200    -5.632962    4.631710    30.386850    1.374735    12.467416    -1.057633    -10.607391    -0.335427    -4.907143    0.365355
6.549372    76.865517    110.503647    -0.529108    -9.452538    177.637878    -1.857373    -5.501853    0.285180    1.974685    5.999630    0.271122    2.241992    6.026958    -2.064237    3.641074    -5.222942    -1.678439    1.066885    17.757668    0.193237    -52.354889    40.054092    -22.956192    0.380479    -6.949757    -12.672875    18.931976    -6.317575    3.562189    6.507376    19.731329    -8.680285    48.135212    42.313931    23.489931    -1.313212    -7.398921    17.959488    -10.928020    -6.682651    -5.372901    22.745430    -23.488646    15.006001    -2.074513    35.139240    5.552509    -19.408028    -10.522306    -20.275997    1.605493    -1.513847    -1.784530    -27.659058    -22.496223    -5.087277    4.542544    30.153952    1.595597    12.938791    -2.045797    -10.576576    -0.387825    -4.715757    0.422306
7.322228    76.755585    110.454384    -0.539822    -9.455185    177.611542    -1.952787    -5.552992    0.305736    1.871912    6.032495    0.301766    2.088847    6.008356    -1.989891    3.603244    -5.128378    -1.596858    1.017473    17.755493    0.344443    -52.761574    39.803329    -22.107548    0.479279    -7.310775    -12.845675    19.333565    -6.647965    3.601794    6.441841    19.744286    -8.628448    48.146328    42.465145    23.567423    -1.326559    -7.344260    18.130714    -10.800862    -6.636754    -5.298435    23.270191    -23.398365    14.976148    -2.021432    35.063351    5.606192    -19.680382    -10.051265    -20.234798    1.511676    -1.671788    -1.680746    -27.184006    -22.329891    -4.560426    4.481268    30.018305    1.831135    13.396276    -3.180728    -10.587824    -0.457562    -4.472035    0.498061
8.116346    76.654274    110.411110    -0.540069    -9.458645    177.587250    -2.039344    -5.598990    0.322022    1.771728    6.059952    0.328001    1.926380    5.996664    -1.907284    3.564453    -5.030696    -1.505909    0.962704    17.748716    0.507784    -53.189384    39.505039    -21.279381    0.574076    -7.664032    -12.984704    19.737141    -6.971962    3.633663    6.369043    19.754889    -8.563065    48.165611    42.594784    23.636755    -1.342293    -7.296549    18.323862    -10.702488    -6.595795    -5.222786    23.815165    -23.313501    14.923976    -1.976478    34.981125    5.683320    -19.917028    -9.517114    -20.179928    1.408789    -1.868875    -1.566929    -26.680832    -22.209896    -4.084754    4.459097    29.983305    2.063676    13.786941    -4.391203    -10.633911    -0.545677    -4.181785    0.593719
8.907121    76.565483    110.376068    -0.528577    -9.463756    177.568344    -2.113683    -5.638164    0.333712    1.677720    6.082150    0.348665    1.768742    5.990167    -1.818850    3.512614    -4.935734    -1.411442    0.904140    17.738394    0.677987    -53.621262    39.169491    -20.503508    0.662304    -7.991825    -13.081363    20.126728    -7.273131    3.656260    6.292405    19.762659    -8.486636    48.191410    42.698032    23.696194    -1.360644    -7.261149    18.532221    -10.640063    -6.564579    -5.148857    24.365564    -23.243929    14.855783    -1.938440    34.902767    5.778271    -20.103510    -8.932698    -20.115835    1.298704    -2.100435    -1.445112    -26.169849    -22.135677    -3.677172    4.478931    30.032928    2.281414    14.078007    -5.606161    -10.703189    -0.650286    -3.856685    0.707196
9.665651    76.492203    110.350609    -0.505936    -9.470934    177.557495    -2.173965    -5.669454    0.340859    1.593203    6.099879    0.363622    1.605454    5.989180    -1.732842    3.483125    -4.851062    -1.314401    0.843841    17.726099    0.847414    -54.037659    38.813465    -19.808985    0.742465    -8.278177    -13.132345    20.484947    -7.536598    3.668710    6.217199    19.767052    -8.403733    48.219547    42.775623    23.745501    -1.382538    -7.242665    18.745319    -10.615435    -6.547400    -5.079812    24.901789    -23.197493    14.780310    -1.905393    34.837727    5.883840    -20.234261    -8.319592    -20.049427    1.185812    -2.353670    -1.320123    -25.674250    -22.102434    -3.352891    4.533226    30.144878    2.482739    14.257101    -6.751041    -10.785304    -0.765135    -3.519205    0.831683
